
<svg xmlns="http://www.w3.org/2000/svg" xmlns:xlink="http://www.w3.org/1999/xlink" width="72" height="63" viewBox="0 0 72 63">
    <defs>
        <path id="a" d="M0 63h72V0H0z"/>
    </defs>
    <g fill="none" fill-rule="evenodd">
        <mask id="b" fill="#fff">
            <use xlink:href="#a"/>
        </mask>
        <g mask="url(#b)">
            <path fill="#30333A" d="M8.61 4.513l27.332 21.963L63.274 4.513H8.61zm58.876 2.262L37.6 30.79c-.032.032-.016.084-.047.115a2.168 2.168 0 0 1-1.612.632 2.168 2.168 0 0 1-1.612-.632c-.031-.031-.018-.083-.047-.115L4.488 6.847v45.024a2.252 2.252 0 0 0 2.251 2.253h33.775v4.515H2.249A2.251 2.251 0 0 1 0 56.382V2.258c0-.016.007-.03.009-.045-.002-.032.016-.054.016-.086.031-.523.234-.99.56-1.358C.621.727.605.663.646.623.696.573.772.59.826.548c.335-.284.75-.462 1.213-.505.084-.006.149-.045.234-.043h67.338c.054-.002.094.005.15.007a2.251 2.251 0 0 1 2.215 2.25v38.345h-4.49V6.775z"/>
            <path fill="#C72528" d="M56.189 57.773l11.857-12.018a2.296 2.296 0 0 1 3.275 0 2.366 2.366 0 0 1 0 3.318L58.226 62.349c-.556.564-1.317.74-2.037.611-.718.129-1.48-.047-2.033-.611l-8.468-8.583a2.368 2.368 0 0 1 0-3.315 2.292 2.292 0 0 1 3.275 0l7.226 7.322z"/>
        </g>
    </g>
</svg>