<?xml version="1.0" encoding="utf-8"?>
<!-- Generator: Adobe Illustrator 16.0.0, SVG Export Plug-In . SVG Version: 6.00 Build 0)  -->
<!DOCTYPE svg PUBLIC "-//W3C//DTD SVG 1.1//EN" "http://www.w3.org/Graphics/SVG/1.1/DTD/svg11.dtd">
<svg version="1.1" id="Layer_1" xmlns="http://www.w3.org/2000/svg" xmlns:xlink="http://www.w3.org/1999/xlink" x="0px" y="0px"
	 width="113.391px" height="113.391px" viewBox="0 0 113.391 113.391" enable-background="new 0 0 113.391 113.391"
	 xml:space="preserve">
<path fill="#C72528" d="M110.194,3.195v107.629H2.565V3.195H110.194 M112.762,0.629H0V113.39h112.762V0.629L112.762,0.629z"/>
<path fill="#C72528" d="M42.463,82.179H29.189V35.686c0-2.053,1.101-3.08,3.3-3.08H67.69c3.079,0,5.62,0.429,7.627,1.283
	c2.004,0.856,3.69,1.992,5.059,3.41c1.224,1.272,2.187,2.75,2.897,4.437c0.708,1.687,1.063,3.46,1.063,5.317
	c0,2.005-0.343,3.899-1.027,5.684c-0.687,1.786-1.907,3.313-3.665,4.583c1.66,0.98,2.871,2.227,3.629,3.74
	c0.756,1.518,1.137,3.691,1.137,6.526v9.901c0,1.076,0.012,1.955,0.036,2.639c0.024,0.688,0.085,1.37,0.183,2.054H71.21
	c-0.146-1.073-0.219-2.174-0.219-3.3v-9.898c0-1.565-0.417-2.688-1.248-3.374c-0.831-0.685-2.225-1.026-4.178-1.026H42.463V82.179z
	 M65.93,53.287c0.929,0,1.687-0.146,2.274-0.439c0.587-0.294,1.075-0.685,1.467-1.174c0.635-0.781,0.954-1.637,0.954-2.567
	c0-1.124-0.367-2.052-1.099-2.786c-0.784-0.881-1.981-1.319-3.596-1.319H43.564c-0.734,0-1.1,0.366-1.1,1.099v7.187L65.93,53.287
	L65.93,53.287z"/>
</svg>
